<?xml version="1.0" standalone="no"?>
<!DOCTYPE svg PUBLIC "-//W3C//DTD SVG 20010904//EN"
 "http://www.w3.org/TR/2001/REC-SVG-20010904/DTD/svg10.dtd">
<svg version="1.0" xmlns="http://www.w3.org/2000/svg"
 width="512.000000pt" height="512.000000pt" viewBox="0 0 512.000000 512.000000"
 preserveAspectRatio="xMidYMid meet">
<metadata>
Created by potrace 1.14, written by Peter Selinger 2001-2017
</metadata>
<g transform="translate(0.000000,512.000000) scale(0.100000,-0.100000)"
fill="#000000" stroke="none">
<path d="M2328 4316 l-106 -53 -39 15 c-21 9 -58 15 -83 15 -53 0 -215 -54
-276 -92 -23 -14 -85 -52 -138 -84 -53 -33 -106 -73 -118 -90 -44 -62 -20
-155 84 -325 34 -56 37 -65 23 -78 -8 -9 -15 -20 -15 -25 0 -16 -18 -10 -105
32 -86 41 -101 46 -167 56 -53 8 -135 -28 -171 -75 -25 -32 -28 -44 -24 -84 3
-33 0 -49 -10 -52 -7 -3 -13 -11 -13 -18 0 -8 -14 -13 -40 -13 -46 -1 -82 -29
-100 -78 -20 -54 -74 -157 -87 -169 -16 -13 -16 -58 0 -79 7 -9 31 -28 54 -42
53 -33 297 -157 310 -157 5 0 31 -10 59 -23 27 -13 97 -41 156 -63 84 -31 107
-43 111 -60 3 -18 -1 -21 -22 -19 -14 2 -53 6 -86 9 -58 6 -100 10 -230 21
-328 27 -446 20 -461 -28 -4 -12 -14 -27 -22 -33 -9 -7 -16 -35 -19 -81 -5
-68 -5 -70 24 -91 29 -21 140 -62 167 -62 8 0 30 -9 48 -19 36 -21 179 -48
261 -50 17 -1 30 -8 34 -18 4 -10 10 -20 14 -23 4 -3 9 -13 11 -24 2 -15 -10
-23 -62 -43 -233 -85 -384 -164 -413 -213 -21 -35 -22 -72 -2 -111 18 -33 72
-89 89 -90 45 -2 106 -11 129 -19 15 -5 33 -7 40 -5 7 2 28 6 47 9 19 3 59 12
88 21 29 9 88 17 131 19 43 2 83 6 88 9 15 10 63 16 62 9 0 -4 -39 -36 -85
-72 -100 -75 -204 -184 -204 -212 0 -11 -15 -39 -34 -62 -19 -23 -40 -54 -46
-70 -12 -33 -5 -66 15 -66 7 0 22 -11 33 -24 25 -32 124 -58 219 -57 13 1 24
-7 28 -19 4 -11 17 -23 31 -26 15 -4 24 -13 24 -25 0 -10 4 -19 10 -19 24 0
84 -96 96 -155 2 -10 22 -36 44 -56 22 -20 40 -41 40 -47 0 -15 71 -72 110
-89 54 -23 67 -23 130 -4 35 11 63 15 72 10 7 -5 25 -6 40 -3 20 4 28 1 33
-15 10 -33 43 -36 74 -7 15 14 36 26 47 26 10 0 25 4 32 8 8 6 27 -5 54 -30
23 -21 48 -38 55 -38 8 0 29 -15 48 -33 61 -60 70 -65 135 -87 57 -19 78 -21
170 -16 58 3 116 8 130 11 13 2 41 7 62 10 109 17 140 56 141 176 1 72 2 78
24 84 12 3 30 19 38 35 10 19 20 27 30 24 8 -4 18 1 21 10 5 14 13 10 44 -18
58 -52 82 -65 120 -62 27 1 35 6 40 26 7 29 30 29 72 -2 53 -37 72 -33 133 27
65 65 69 92 31 180 -18 40 -21 55 -12 55 7 0 24 8 37 18 22 17 62 28 131 36
31 4 78 31 78 46 0 6 7 10 15 10 8 0 15 4 15 10 0 6 21 7 54 4 54 -6 54 -6 61
25 3 17 3 36 -2 43 -4 7 -8 16 -8 19 0 18 -115 156 -194 232 l-90 89 17 34
c11 24 21 34 32 30 8 -2 67 -25 132 -50 64 -25 131 -48 150 -50 18 -2 41 -7
50 -11 19 -7 68 37 68 61 0 7 12 14 27 16 39 5 39 23 -3 62 -26 25 -35 40 -31
55 2 11 0 22 -7 25 -7 3 -8 7 -1 13 6 4 20 20 33 34 l23 26 -32 31 c-18 17
-75 50 -128 73 -53 23 -145 66 -205 95 -60 30 -116 54 -125 55 -9 1 -2 5 14 9
17 5 57 19 90 30 47 17 89 23 191 26 141 4 177 12 193 43 11 20 38 38 93 63
27 12 58 61 58 91 0 17 -15 24 -75 32 -62 9 -77 16 -71 30 3 8 -4 25 -15 38
-10 14 -19 30 -19 36 0 12 -63 31 -105 31 -20 0 -35 7 -43 21 -19 30 -135 79
-206 87 l-61 7 90 45 c124 62 224 129 262 176 42 50 52 61 102 108 23 21 44
49 47 62 9 37 -58 193 -120 277 -40 54 -122 134 -144 139 -30 8 -132 -44 -247
-126 -49 -36 -96 -70 -103 -77 -11 -9 -27 -8 -73 6 -32 10 -59 21 -59 24 0 4
6 15 14 26 51 74 95 182 101 253 4 37 -1 50 -33 95 -20 29 -49 62 -63 74 -15
13 -29 35 -32 50 -5 25 -20 43 -75 94 -16 15 -47 26 -97 36 -10 2 -29 12 -40
23 -12 11 -24 18 -27 15 -3 -4 -26 15 -50 41 -53 56 -99 66 -157 36 -38 -20
-41 -20 -111 -3 -25 7 -54 14 -64 16 -11 3 -24 11 -28 19 -8 15 -72 27 -148
28 -32 0 -53 7 -73 24 -24 20 -39 24 -100 24 -67 0 -80 -4 -179 -54z"/>
</g>
</svg>
