<?xml version="1.0" standalone="no"?>
<!DOCTYPE svg PUBLIC "-//W3C//DTD SVG 20010904//EN"
 "http://www.w3.org/TR/2001/REC-SVG-20010904/DTD/svg10.dtd">
<svg version="1.0" xmlns="http://www.w3.org/2000/svg"
 width="900.000000pt" height="900.000000pt" viewBox="0 0 900.000000 900.000000"
 preserveAspectRatio="xMidYMid meet">
<metadata>
Created by potrace 1.14, written by Peter Selinger 2001-2017
</metadata>
<g transform="translate(0.000000,900.000000) scale(0.100000,-0.100000)"
fill="#000000" stroke="none">
<path d="M5960 8835 c-52 -28 -358 -191 -680 -362 -322 -171 -828 -440 -1125
-598 -297 -158 -580 -309 -630 -335 -49 -26 -193 -103 -320 -170 -126 -67
-266 -142 -310 -165 -614 -326 -642 -341 -948 -504 l-247 -133 28 -51 c16 -29
52 -95 79 -147 91 -173 394 -742 473 -890 87 -164 117 -219 585 -1100 542
-1019 671 -1262 790 -1485 61 -115 158 -299 216 -407 57 -109 108 -198 113
-198 8 0 366 187 641 335 33 18 168 90 300 160 499 265 548 291 630 335 104
56 194 104 470 250 138 73 390 207 560 298 171 90 346 184 390 207 44 24 253
135 465 248 212 112 498 264 635 337 138 73 253 135 257 139 7 6 -23 63 -572
1096 -167 314 -357 671 -423 795 -135 255 -169 320 -289 545 -47 88 -142 266
-210 395 -69 129 -146 273 -171 320 -25 47 -170 319 -322 605 -152 286 -279
523 -283 526 -4 3 -50 -17 -102 -46z m-320 -595 c248 -39 494 -176 660 -368
61 -69 142 -200 138 -220 -2 -7 -37 -31 -78 -53 -168 -90 -267 -142 -505 -269
-137 -73 -349 -185 -470 -250 -121 -64 -263 -140 -315 -167 -257 -136 -310
-165 -310 -172 0 -14 59 -96 102 -142 239 -256 617 -340 936 -207 198 82 357
235 447 431 49 106 66 178 72 308 l6 116 111 10 c61 5 114 8 119 6 12 -7 8
-163 -8 -260 -119 -731 -908 -1128 -1565 -787 -457 237 -682 769 -533 1264 55
184 141 326 280 462 160 156 349 254 566 293 88 16 259 18 347 5z m650 -2174
c0 -2 -7 -7 -16 -10 -8 -3 -12 -2 -9 4 6 10 25 14 25 6z m-430 -476 c-8 -5
-19 -10 -25 -10 -5 0 -3 5 5 10 8 5 20 10 25 10 6 0 3 -5 -5 -10z m-70 -34 c0
-2 -7 -7 -16 -10 -8 -3 -12 -2 -9 4 6 10 25 14 25 6z m-749 -304 c4 -4 -8 -56
-27 -117 -33 -105 -74 -236 -127 -410 -14 -44 -48 -152 -75 -240 -132 -418
-129 -405 -94 -405 14 0 239 -64 387 -110 58 -19 497 -146 683 -198 77 -22 92
-30 92 -47 0 -19 -46 -194 -53 -201 -3 -3 -269 71 -297 83 -8 3 -21 5 -27 4
-7 -1 -13 2 -13 7 0 5 -10 10 -22 10 -13 1 -113 28 -223 62 -110 33 -211 63
-225 66 -13 3 -107 30 -208 60 -102 30 -186 53 -188 51 -4 -4 -161 -519 -199
-652 -13 -44 -43 -145 -67 -225 -25 -80 -56 -180 -68 -222 -27 -89 -14 -85
-150 -42 -41 13 -80 24 -87 24 -22 0 -30 -31 133 505 25 83 56 184 69 225 13
41 38 122 55 180 18 58 43 139 56 180 13 41 24 80 24 87 0 7 -19 17 -42 24
-24 6 -142 40 -263 76 -380 112 -488 144 -575 168 -158 45 -280 82 -285 87 -4
4 52 208 60 216 2 2 50 -11 107 -28 56 -17 155 -46 218 -65 63 -19 169 -51
235 -71 194 -58 315 -94 390 -115 39 -11 106 -31 149 -45 43 -13 80 -23 81
-22 2 2 17 48 34 103 17 55 55 179 85 275 29 96 93 306 141 465 48 160 91 300
95 312 l9 22 103 -35 c56 -19 105 -37 109 -42z"/>
<path d="M5358 8009 c-193 -28 -357 -115 -495 -263 -170 -182 -248 -417 -222
-671 5 -49 13 -93 17 -97 8 -8 127 54 777 399 176 93 370 196 430 228 177 93
235 126 235 135 0 5 -27 33 -60 62 -188 166 -440 243 -682 207z"/>
<path d="M1650 6329 c0 -4 -20 -137 -45 -295 -25 -159 -61 -388 -80 -509 -47
-307 -148 -952 -195 -1250 -22 -138 -40 -261 -40 -273 0 -12 73 -158 161 -324
89 -167 237 -445 329 -618 92 -173 286 -538 431 -810 334 -629 552 -1038 859
-1618 135 -254 248 -462 251 -462 4 0 11 17 16 37 6 21 68 245 138 498 191
686 226 812 315 1135 44 162 83 296 85 298 6 6 -26 67 -290 562 -127 239 -260
489 -295 555 -34 66 -75 143 -90 170 -15 28 -180 338 -367 690 -1116 2100
-1183 2225 -1183 2214z"/>
<path d="M7990 4242 c-151 -81 -367 -197 -480 -256 -113 -60 -236 -126 -275
-146 -38 -21 -245 -131 -460 -245 -665 -354 -708 -376 -780 -415 -68 -36
-1273 -677 -1737 -923 l-226 -120 -26 -91 c-14 -50 -50 -179 -80 -286 -30
-107 -75 -269 -100 -360 -25 -91 -115 -416 -201 -724 -85 -307 -155 -563 -155
-568 0 -8 129 56 335 167 33 18 278 149 545 290 769 409 1099 584 1185 630 44
24 256 136 470 250 215 114 426 227 470 250 229 122 716 381 825 438 69 37
165 88 214 114 l90 48 37 115 c21 63 97 297 169 520 72 223 165 506 205 630
210 641 265 813 265 821 0 5 -3 9 -7 9 -5 -1 -132 -67 -283 -148z"/>
<path d="M7223 1880 c-38 -23 -53 -48 -53 -90 0 -101 120 -152 191 -81 52 52
36 141 -31 176 -39 20 -69 19 -107 -5z m118 -29 c78 -78 -15 -200 -108 -142
-59 37 -55 127 7 158 40 20 69 15 101 -16z"/>
<path d="M7240 1786 c0 -37 4 -66 10 -66 6 0 10 14 10 30 0 17 4 30 10 30 5 0
16 -13 25 -30 9 -16 20 -30 25 -30 13 0 13 7 -1 31 -7 15 -7 24 1 34 6 8 10
24 8 37 -2 19 -10 23 -45 26 l-43 3 0 -65z m70 30 c0 -16 -19 -25 -37 -18 -23
8 -14 32 12 32 15 0 25 -6 25 -14z"/>
</g>
</svg>
